<svg width="24" height="24" viewBox="0 0 24 24" fill="none" xmlns="http://www.w3.org/2000/svg">
<path fill-rule="evenodd" clip-rule="evenodd" d="M9.60229 5.44677C9.60229 5.44677 10.7149 5.21397 12.0002 5.21397C13.2855 5.21397 14.3981 5.44677 14.3981 5.44677L14.8431 4.52891C14.937 4.33509 15.1438 4.22196 15.3549 4.25602C17.501 4.60213 19.501 5.75 19.501 5.75C19.501 5.75 21.9994 8.25 21.9994 17.0673C22.0004 17.2261 21.9265 17.3801 21.7986 17.4725C20.1582 18.6572 18.1659 19.4353 17.3621 19.7224C17.1491 19.7985 16.9158 19.7127 16.7944 19.5205L16.2319 18.6301C16.0779 18.3864 16.1579 18.0622 16.4071 17.9198L17.5826 17.2483L17.1071 16.8731C17.1071 16.8731 15.2051 18.0247 12.0002 18.0247C8.79526 18.0247 6.89331 16.8731 6.89331 16.8731L6.41783 17.2483L7.59324 17.9198C7.8425 18.0622 7.92249 18.3864 7.76851 18.6301L7.20601 19.5205C7.08456 19.7127 6.85124 19.7985 6.63825 19.7224C5.83449 19.4353 3.84215 18.6572 2.20178 17.4725C2.07384 17.3801 1.99999 17.2261 2.00099 17.0673C2.00099 8.25 4.50098 5.75 4.50098 5.75C4.50098 5.75 6.50098 4.60187 8.64548 4.25602C8.85663 4.22196 9.06333 4.33509 9.1573 4.52891L9.60229 5.44677ZM17.251 12.75C17.251 13.8546 16.4675 14.75 15.501 14.75C14.5345 14.75 13.751 13.8546 13.751 12.75C13.751 11.6454 14.5345 10.75 15.501 10.75C16.4675 10.75 17.251 11.6454 17.251 12.75ZM8.50098 14.75C9.46748 14.75 10.251 13.8546 10.251 12.75C10.251 11.6454 9.46748 10.75 8.50098 10.75C7.53449 10.75 6.75098 11.6454 6.75098 12.75C6.75098 13.8546 7.53449 14.75 8.50098 14.75Z" fill="#F1EFEF"/>
</svg>
